inDegrees=yes
name=ik_lifting_orientations
DataType=double
version=3
OpenSimVersion=4.5-2024-01-10-34fd6af
endheader
time	pelvis_tilt	pelvis_list	pelvis_rotation	pelvis_tx	pelvis_ty	pelvis_tz	hip_flexion_r	hip_adduction_r	hip_rotation_r	knee_angle_r	knee_angle_r_beta	ankle_angle_r	subtalar_angle_r	mtp_angle_r	hip_flexion_l	hip_adduction_l	hip_rotation_l	knee_angle_l	knee_angle_l_beta	ankle_angle_l	subtalar_angle_l	mtp_angle_l	lumbar_extension	lumbar_bending	lumbar_rotation	arm_flex_r	arm_add_r	arm_rot_r	elbow_flex_r	pro_sup_r	wrist_flex_r	wrist_dev_r	arm_flex_l	arm_add_l	arm_rot_l	elbow_flex_l	pro_sup_l	wrist_flex_l	wrist_dev_l
0.77	2.784191114317521	-10.95431832296811	-101.3327465437541	0	0.9399999998679526	0	45.02034274064843	-10.55582369447347	0	59.88316902399389	1.045158465996973	-5.203388677942425	0	0	45.02034274064843	-10.55582369447347	0	59.88316902399389	1.045158465996973	-5.203388677942425	0	0	-32.1841220766242	-7.160012399280117	-10.80761680798708	16.44801589817225	3.841782853781222	24.18668240065539	5.844938712172864	2.350015933955578	0	0	0	-10.66457855960766	0	87.68215724458578	2.350015933955578	0	0
0.78	3.183171027835296	-11.82079453379854	-101.0989823977979	0	0.9399999998679526	0	45.02033098414619	-10.55470311194594	0	59.88322213277419	1.04515939292005	-5.202854147015028	0	0	45.02033098414619	-10.55470311194594	0	59.88322213277419	1.04515939292005	-5.202854147015028	0	0	-34.38729677759878	-7.70719437919139	-11.69386651435908	17.4675155017803	4.271970152629204	24.50870166803315	6.065999502043591	2.349069994272105	0	0	0	-10.66586433144574	0	87.68309014822019	2.349069994272105	0	0
0.79	3.540434671925454	-12.51597264864335	-100.6113507787293	0	0.9399999998679526	0	45.02032297801571	-10.5539418036192	0	59.8832583359003	1.045160024783801	-5.202491264547064	0	0	45.02032297801571	-10.5539418036192	0	59.8832583359003	1.045160024783801	-5.202491264547064	0	0	-36.27126682192409	-8.068951460465644	-12.51574072923856	18.34678503842753	4.686133063567082	24.64905766517839	6.217719586022213	2.348425495705141	0	0	0	-10.66674070079852	0	87.68372576494635	2.348425495705141	0	0
0.8	3.80234924364971	-13.10243326517511	-100.40800869734	0	0.9399999998679526	0	45.02031567211608	-10.55324750694361	0	59.88329136329838	1.04516060122064	-5.202160445210521	0	0	45.02031567211608	-10.55324750694361	0	59.88329136329838	1.04516060122064	-5.202160445210521	0	0	-37.9618158057009	-8.618774385400823	-12.58989758673779	19.24644038016221	5.144389268073986	24.1686499229086	6.279040232882261	2.347837376797065	0	0	0	-10.66754036660065	0	87.68430577898275	2.347837376797065	0	0
0.8100000000000001	4.028352173722532	-13.67147080346709	-100.6703529281945	0	0.9399999998679526	0	45.0203074894604	-10.55247475673557	0	59.88332850918522	1.04516124953867	-5.201792788600499	0	0	45.0203074894604	-10.55247475673557	0	59.88332850918522	1.04516124953867	-5.201792788600499	0	0	-39.65363394675453	-9.529238197452717	-12.15279776075983	20.33834247207772	5.71033318089737	23.37829125976838	6.245544263913447	2.347177555263291	0	0	0	-10.66843879095298	0	87.68495650761399	2.347177555263291	0	0
0.82	4.30922940970907	-14.51971387021696	-101.3051754616129	0	0.9399999998679526	0	45.02029794076162	-10.55157657524149	0	59.88337197386708	1.045162008140476	-5.201365848246209	0	0	45.02029794076162	-10.55157657524149	0	59.88337197386708	1.045162008140476	-5.201365848246209	0	0	-41.61475459679007	-10.74238662286147	-11.52010514766442	21.45124787877449	6.257170969113394	22.5484556632581	6.333204117486508	2.346406717566095	0	0	0	-10.66948936331879	0	87.68571672259318	2.346406717566095	0	0
0.83	4.675144213465201	-15.6460125874111	-101.9832226581499	0	0.9399999998679526	0	45.02029072424295	-10.55090585821861	0	59.88340511523067	1.04516258656639	-5.201047832120014	0	0	45.02029072424295	-10.55090585821861	0	59.88340511523067	1.04516258656639	-5.201047832120014	0	0	-43.70791798964118	-12.26332231829978	-10.6502130851557	22.46541496777484	6.765382738589405	21.44175084155873	6.523240413573218	2.345822099761848	0	0	0	-10.67028848699694	0	87.68629328411586	2.345822099761848	0	0
0.84	4.976474816529455	-16.66415108453661	-102.6550076227347	0	0.9399999998679526	0	45.02028212250063	-10.55010432335198	0	59.88344451432909	1.045163274210379	-5.200667673404866	0	0	45.02028212250063	-10.55010432335198	0	59.88344451432909	1.045163274210379	-5.200667673404866	0	0	-45.69986424527401	-13.76581730182591	-9.669591021583003	23.53906773599206	7.188119550893179	20.15279140054938	6.70985789114328	2.345125915776009	0	0	0	-10.67123934028446	0	87.68697987433443	2.345125915776009	0	0
0.85	5.11330939783001	-17.47367324881742	-103.6598090070419	0	0.9399999998679526	0	45.02027119677682	-10.54908295738116	0	59.88349439153342	1.045164144731817	-5.200183076445227	0	0	45.02027119677682	-10.54908295738116	0	59.88349439153342	1.045164144731817	-5.200183076445227	0	0	-47.42192084644721	-15.37127610909784	-8.473132771831448	24.5934789182941	7.631516259915829	18.87273062356852	6.926978919893484	2.344242688107687	0	0	0	-10.67244441226369	0	87.68785093058759	2.344242688107687	0	0
0.86	5.256986721432059	-18.33372979472702	-104.7329124370169	0	0.9399999998679526	0	45.02026137452913	-10.54816725481499	0	59.88353928936617	1.045164928346825	-5.199748964579237	0	0	45.02026137452913	-10.54816725481499	0	59.88353928936617	1.045164928346825	-5.199748964579237	0	0	-49.21028121671637	-16.8953251675306	-7.834236704609258	25.68549219639785	8.056465201248917	18.1546413188569	7.149523591912182	2.343448178245862	0	0	0	-10.67352896063819	0	87.68863449166655	2.343448178245862	0	0
0.87	5.525493990048301	-19.42107798364967	-105.6463280312037	0	0.9399999998679526	0	45.02025082180435	-10.54718301358467	0	59.88358746741655	1.045165769212431	-5.199282452076548	0	0	45.02025082180435	-10.54718301358467	0	59.88358746741655	1.045165769212431	-5.199282452076548	0	0	-51.30444659602001	-18.4891024775366	-7.570754551143179	26.83484764826065	8.601527721108962	17.57684386085119	7.327904149793331	2.342594889074623	0	0	0	-10.67469334873875	0	87.68947602201921	2.342594889074623	0	0
0.88	5.904203943772594	-20.5619299080895	-106.2117373173287	0	0.9399999998679526	0	45.02023981118131	-10.54615698192953	0	59.88363772406187	1.045166646356363	-5.198796364940322	0	0	45.02023981118131	-10.54615698192953	0	59.88363772406187	1.045166646356363	-5.198796364940322	0	0	-53.57883202333141	-20.0257211795052	-7.550753237022681	28.06163089130387	9.170144638721466	16.84490161017342	7.518275745948633	2.341704550524149	0	0	0	-10.67590827303098	0	87.69035409119475	2.341704550524149	0	0
0.89	6.333628266350722	-21.53471772064997	-106.2257181739485	0	0.9399999998679526	0	45.02022804791587	-10.54505394386399	0	59.88369107244966	1.045167577461381	-5.19827340522089	0	0	45.02022804791587	-10.54505394386399	0	59.88369107244966	1.045167577461381	-5.19827340522089	0	0	-55.75540794249016	-21.16990548164497	-7.933443157275513	29.16244515305572	9.808832601319333	16.21571689718626	7.772363105935857	2.340755558746317	0	0	0	-10.67720059224833	0	87.69129000512601	2.340755558746317	0	0
0.9	6.859409213779811	-22.39460364834134	-105.7734066855309	0	0.9399999998679526	0	45.02021798931568	-10.54411357631548	0	59.88373674877253	1.045168374663605	-5.197827985263697	0	0	45.02021798931568	-10.54411357631548	0	59.88373674877253	1.045168374663605	-5.197827985263697	0	0	-57.96536734275139	-21.75422610677179	-8.901612561152254	30.26575963374972	10.44514830863366	15.83134001466702	7.953163572929784	2.339943581549301	0	0	0	-10.67830685874794	0	87.69209079269272	2.339943581549301	0	0
0.91	7.332833840684614	-23.17164204749898	-105.286490157642	0	0.9399999998679526	0	45.02020929584012	-10.54330762303401	0	59.88377645950994	1.045169067746721	-5.197446947045499	0	0	45.02020929584012	-10.54330762303401	0	59.88377645950994	1.045169067746721	-5.197446947045499	0	0	-59.9978123216197	-21.99217249884518	-10.15765483821806	31.09769058350962	10.91232524778233	15.8892985832239	8.29259339381858	2.339240135532301	0	0	0	-10.67926715724638	0	87.69278454486978	2.339240135532301	0	0
0.92	7.690242338689334	-23.84879512728484	-105.185636959179	0	0.9399999998679526	0	45.02018575430396	-10.54113840797986	0	59.88388411291442	1.04517094665308	-5.196423790061523	0	0	45.02018575430396	-10.54113840797986	0	59.88388411291442	1.04517094665308	-5.196423790061523	0	0	-61.95140367688145	-22.32930461170161	-11.3054447571849	32.10556764563955	11.19109512472916	16.05328138843939	8.64022719514778	2.337333755734108	0	0	0	-10.68187077550421	0	87.69466465392546	2.337333755734108	0	0
0.93	7.890387058242966	-24.4609846540841	-105.4811209296765	0	0.9399999998679526	0	45.02015840453053	-10.53860494164892	0	59.88400836540178	1.045173115268089	-5.195228499415515	0	0	45.02015840453053	-10.53860494164892	0	59.88400836540178	1.045173115268089	-5.195228499415515	0	0	-63.82826901622593	-22.96595771285062	-12.03522153768911	33.27741969564327	11.54866359636276	15.89184253370508	8.896166361833794	2.335123932716339	0	0	0	-10.68488279787316	0	87.69684402419718	2.335123932716339	0	0
0.9399999999999999	8.238640154445587	-25.04240164062741	-105.3018261896005	0	0.9399999998679526	0	45.02014848390304	-10.53770484043399	0	59.88405425793771	1.045173916243943	-5.194805321319909	0	0	45.02014848390304	-10.53770484043399	0	59.88405425793771	1.045173916243943	-5.194805321319909	0	0	-65.62607619111377	-23.216536559765	-13.13692376605002	34.38806728850471	11.92026623435206	15.72800404816534	9.002961721712387	2.334316761777841	0	0	0	-10.68598964417487	0	87.69764007233123	2.334316761777841	0	0
0.95	8.602370142429338	-25.62411099200765	-105.1262531104965	0	0.9399999998679526	0	45.02012606454992	-10.53568566072959	0	59.88415796184415	1.045175726218557	-5.193859093401037	0	0	45.02012606454992	-10.53568566072959	0	59.88415796184415	1.045175726218557	-5.193859093401037	0	0	-67.43993535789832	-23.43769247668603	-14.27040078079798	35.51956862424739	12.20171749841481	15.67907363771144	9.143096180248667	2.33249180348631	0	0	0	-10.6884922249306	0	87.69943988277834	2.33249180348631	0	0
0.96	8.925867891513995	-25.99883024123583	-104.6574163876349	0	0.9399999998679526	0	45.02011938293803	-10.53508543816908	0	59.88418902021585	1.045176268289404	-5.19357770937871	0	0	45.02011938293803	-10.53508543816908	0	59.88418902021585	1.045176268289404	-5.19357770937871	0	0	-68.95715617953827	-23.14182478613388	-15.50328525760017	36.50755734297246	12.42624927394059	15.98165795664457	9.23510636996685	2.33194695159934	0	0	0	-10.68924066632521	0	87.69997722672663	2.33194695159934	0	0
0.97	9.398683696169488	-26.48584115206839	-103.964348123097	0	0.9399999998679526	0	45.02011270426333	-10.53447528463101	0	59.88421964037632	1.045176802712021	-5.193290789440264	0	0	45.02011270426333	-10.53447528463101	0	59.88421964037632	1.045176802712021	-5.193290789440264	0	0	-70.61635914062232	-22.84181275033306	-16.79690370492524	37.51927113284633	12.6541443254698	16.21195656501703	9.455818222423291	2.331405201571488	0	0	0	-10.6899815353517	0	87.70051151130608	2.331405201571488	0	0
0.98	9.876878742176524	-26.96033910326375	-103.2719621076063	0	0.9399999998679526	0	45.0201053430367	-10.53380072575465	0	59.8842532886166	1.045177389984602	-5.192973459014812	0	0	45.0201053430367	-10.53380072575465	0	59.8842532886166	1.045177389984602	-5.192973459014812	0	0	-71.79802840341372	-22.53605438241457	-17.77175658418093	38.30918279169168	12.85631440992305	16.30803579481518	9.333225942869664	2.330808731057669	0	0	0	-10.69079647276347	0	87.70109976225412	2.330808731057669	0	0
